<?xml version="1.0" encoding="UTF-8" standalone="no"?>
<!DOCTYPE svg PUBLIC "-//W3C//DTD SVG 1.1//EN" "http://www.w3.org/Graphics/SVG/1.1/DTD/svg11.dtd">
<svg width="100%" height="100%" viewBox="0 0 28 28" version="1.1" xmlns="http://www.w3.org/2000/svg" xmlns:xlink="http://www.w3.org/1999/xlink" xml:space="preserve" xmlns:serif="http://www.serif.com/" style="fill-rule:evenodd;clip-rule:evenodd;stroke-linejoin:round;stroke-miterlimit:2;">
    <g>
        <path id="c142_x" d="M13.98,0C6.259,0 0,6.261 0,13.983C0,21.704 6.259,27.965 13.98,27.965C21.705,27.965 27.965,21.703 27.965,13.983C27.965,6.261 21.705,0 13.98,0ZM19.992,17.769L17.765,19.993C17.765,19.993 14.242,16.213 13.979,16.213C13.72,16.213 10.196,19.993 10.196,19.993L7.968,17.769C7.968,17.769 11.752,14.297 11.752,13.988C11.752,13.674 7.968,10.201 7.968,10.201L10.196,7.972C10.196,7.972 13.749,11.754 13.979,11.754C14.211,11.754 17.765,7.972 17.765,7.972L19.992,10.201C19.992,10.201 16.207,13.724 16.207,13.988C16.207,14.239 19.992,17.769 19.992,17.769Z" style="fill:rgb(27,13,78);fill-rule:nonzero;"/>
    </g>
</svg>
