<?xml version="1.0" encoding="UTF-8" standalone="no"?>
<!DOCTYPE svg PUBLIC "-//W3C//DTD SVG 1.1//EN" "http://www.w3.org/Graphics/SVG/1.1/DTD/svg11.dtd">
<svg width="100%" height="100%" viewBox="0 0 512 512" version="1.1" xmlns="http://www.w3.org/2000/svg" xmlns:xlink="http://www.w3.org/1999/xlink" xml:space="preserve" xmlns:serif="http://www.serif.com/" style="fill-rule:evenodd;clip-rule:evenodd;stroke-linejoin:round;stroke-miterlimit:2;">
    <g>
        <path d="M147.682,173.862C172.542,141.158 211.844,120 256,120C292.326,120 326.479,134.146 352.167,159.833L362.773,170.439L447.626,85.587L437.02,74.981C388.668,26.629 324.381,0 256,0C187.62,0 123.333,26.629 74.98,74.98C70.591,79.37 66.386,83.894 62.358,88.537L147.682,173.862Z" style="fill:rgb(27,13,78);fill-rule:nonzero;"/>
        <path d="M423.462,449.642C428.105,445.614 432.63,441.409 437.02,437.02C485.371,388.667 512,324.38 512,256C512,240.425 510.59,224.821 507.808,209.623L505.557,197.324L241,197.324L241,317.324L377.452,317.324C368.015,336.097 354.516,352.103 338.253,364.433L423.462,449.642Z" style="fill:rgb(27,13,78);fill-rule:nonzero;"/>
        <path d="M311.602,380.208C294.511,387.831 275.655,392 256,392C211.844,392 172.542,370.842 147.682,338.138L62.358,423.462C66.386,428.105 70.591,432.63 74.98,437.019C123.333,485.371 187.62,512 256,512C307.916,512 357.464,496.637 399.479,468.085L311.602,380.208Z" style="fill:rgb(27,13,78);fill-rule:nonzero;"/>
        <path d="M131.863,311.531C124.244,294.566 120,275.77 120,256C120,236.23 124.244,217.434 131.863,200.469L43.915,112.521C15.363,154.536 0,204.084 0,256C0,307.916 15.363,357.464 43.915,399.479L131.863,311.531Z" style="fill:rgb(27,13,78);fill-rule:nonzero;"/>
    </g>
</svg>
