<?xml version="1.0" encoding="UTF-8" standalone="no"?>
<!DOCTYPE svg PUBLIC "-//W3C//DTD SVG 1.1//EN" "http://www.w3.org/Graphics/SVG/1.1/DTD/svg11.dtd">
<svg width="100%" height="100%" viewBox="0 0 512 512" version="1.1" xmlns="http://www.w3.org/2000/svg" xmlns:xlink="http://www.w3.org/1999/xlink" xml:space="preserve" xmlns:serif="http://www.serif.com/" style="fill-rule:evenodd;clip-rule:evenodd;stroke-linejoin:round;stroke-miterlimit:2;">
    <g>
        <path d="M497,0L87.94,0C79.656,0 72.94,6.716 72.94,15L72.94,202.911L15,202.911C6.716,202.911 0,209.627 0,217.911L0,460.588C0,488.936 23.089,512 51.47,512L446.999,512C482.84,512 512,482.875 512,447.077L512,15C512,6.716 505.284,0 497,0ZM30,460.587L30,232.911L72.94,232.911L72.94,460.588C72.94,472.395 63.309,482.001 51.47,482.001C39.631,482 30,472.395 30,460.587ZM482,447.077C482,466.333 466.298,482 446.999,482L98.245,482C101.25,475.476 102.94,468.227 102.94,460.587L102.94,427.708L102.94,217.911L102.94,30L482,30L482,447.077Z" style="fill:rgb(27,13,78);fill-rule:nonzero;"/>
        <path d="M147.942,270.876L437.013,270.876C445.297,270.876 452.013,264.16 452.013,255.876C452.013,247.592 445.297,240.876 437.013,240.876L147.942,240.876C139.658,240.876 132.942,247.592 132.942,255.876C132.942,264.16 139.658,270.876 147.942,270.876Z" style="fill:rgb(27,13,78);fill-rule:nonzero;"/>
        <path d="M147.942,210.968L437.013,210.968C445.297,210.968 452.013,204.252 452.013,195.968C452.013,187.684 445.297,180.968 437.013,180.968L147.942,180.968C139.658,180.968 132.942,187.684 132.942,195.968C132.942,204.252 139.658,210.968 147.942,210.968Z" style="fill:rgb(27,13,78);fill-rule:nonzero;"/>
        <path d="M147.942,330.783L245.561,330.783C253.845,330.783 260.561,324.067 260.561,315.783C260.561,307.499 253.845,300.783 245.561,300.783L147.942,300.783C139.658,300.783 132.942,307.499 132.942,315.783C132.942,324.067 139.658,330.783 147.942,330.783Z" style="fill:rgb(27,13,78);fill-rule:nonzero;"/>
        <path d="M147.942,390.69L245.561,390.69C253.845,390.69 260.561,383.974 260.561,375.69C260.561,367.406 253.845,360.69 245.561,360.69L147.942,360.69C139.658,360.69 132.942,367.406 132.942,375.69C132.942,383.975 139.658,390.69 147.942,390.69Z" style="fill:rgb(27,13,78);fill-rule:nonzero;"/>
        <path d="M147.942,450.598L245.561,450.598C253.845,450.598 260.561,443.882 260.561,435.598C260.561,427.314 253.845,420.598 245.561,420.598L147.942,420.598C139.658,420.598 132.942,427.314 132.942,435.598C132.942,443.882 139.658,450.598 147.942,450.598Z" style="fill:rgb(27,13,78);fill-rule:nonzero;"/>
        <path d="M144.448,147.653C149.129,147.653 153.809,145.736 153.809,141.902L153.809,101.166L176.611,142.621C178.891,146.814 182.731,147.653 187.052,147.653C191.733,147.653 196.413,145.736 196.413,141.902L196.413,65.702C196.413,61.748 191.733,60.071 187.052,60.071C182.372,60.071 177.692,61.748 177.692,65.702L177.692,106.438L158.25,69.416C153.69,60.67 151.169,60.071 144.449,60.071C139.769,60.071 135.088,61.868 135.088,65.822L135.088,141.903C135.087,145.736 139.768,147.653 144.448,147.653Z" style="fill:rgb(27,13,78);fill-rule:nonzero;"/>
        <path d="M222.33,147.653L265.054,147.653C269.014,147.653 270.695,143.46 270.695,139.626C270.695,135.193 268.655,131.359 265.054,131.359L232.891,131.359L232.891,110.99L250.892,110.99C254.852,110.99 256.533,107.156 256.533,103.921C256.533,100.087 254.493,96.612 250.892,96.612L232.891,96.612L232.891,76.365L265.054,76.365C268.655,76.365 270.695,72.531 270.695,68.098C270.695,64.264 269.015,60.071 265.054,60.071L222.33,60.071C218.25,60.071 214.169,61.988 214.169,65.822L214.169,141.903C214.169,145.736 218.249,147.653 222.33,147.653Z" style="fill:rgb(27,13,78);fill-rule:nonzero;"/>
        <path d="M301.651,142.142C302.971,146.335 308.492,148.372 314.012,148.372C319.412,148.372 325.173,146.335 326.133,142.142L332.373,113.746L338.614,142.142C339.574,146.335 345.335,148.372 350.735,148.372C356.256,148.372 361.656,146.335 363.096,142.142L386.978,69.057C387.098,68.698 387.218,68.099 387.218,67.499C387.218,63.425 380.498,60.071 375.097,60.071C372.217,60.071 369.816,61.029 369.096,63.546L350.855,125.009L341.374,84.512C340.654,81.277 336.454,79.6 332.373,79.6C328.293,79.6 324.092,81.277 323.373,84.512L313.892,125.009L295.65,63.545C294.93,61.029 292.53,60.07 289.649,60.07C284.249,60.07 277.528,63.424 277.528,67.498C277.528,68.097 277.648,68.696 277.768,69.056L301.651,142.142Z" style="fill:rgb(27,13,78);fill-rule:nonzero;"/>
        <path d="M423.215,132.077C412.054,132.077 408.454,123.211 402.813,123.211C398.252,123.211 394.652,129.201 394.652,133.275C394.652,141.183 407.853,148.851 423.574,148.851C440.975,148.851 453.576,139.505 453.576,122.252C453.576,92.06 415.533,94.336 415.533,82.355C415.533,78.641 419.013,75.166 427.534,75.166C437.375,75.166 439.655,79.719 443.976,79.719C449.256,79.719 451.416,73.13 451.416,69.895C451.416,60.549 433.894,59.352 427.534,59.352C412.533,59.352 396.811,66.181 396.811,84.153C396.811,112.189 434.854,109.673 434.854,124.17C434.856,129.92 428.736,132.077 423.215,132.077Z" style="fill:rgb(27,13,78);fill-rule:nonzero;"/>
        <path d="M437.013,300.783L305.562,300.783C297.278,300.783 290.562,307.499 290.562,315.783L290.562,435.598C290.562,443.882 297.278,450.598 305.562,450.598L437.013,450.598C445.297,450.598 452.013,443.882 452.013,435.598L452.013,315.783C452.013,307.499 445.297,300.783 437.013,300.783ZM422.013,420.598L320.562,420.598L320.562,330.783L422.013,330.783L422.013,420.598Z" style="fill:rgb(27,13,78);fill-rule:nonzero;"/>
    </g>
</svg>
