<?xml version="1.0" encoding="UTF-8" standalone="no"?>
<!DOCTYPE svg PUBLIC "-//W3C//DTD SVG 1.1//EN" "http://www.w3.org/Graphics/SVG/1.1/DTD/svg11.dtd">
<svg width="100%" height="100%" viewBox="0 0 98 98" version="1.1" xmlns="http://www.w3.org/2000/svg" xmlns:xlink="http://www.w3.org/1999/xlink" xml:space="preserve" xmlns:serif="http://www.serif.com/" style="fill-rule:evenodd;clip-rule:evenodd;stroke-linejoin:round;stroke-miterlimit:2;">
    <path d="M48.875,0C21.883,0 0,21.883 0,48.875C0,75.867 21.883,97.75 48.875,97.75C75.867,97.75 97.75,75.867 97.75,48.875C97.75,21.883 75.867,0 48.875,0ZM77.691,37.503C74.912,43.783 66.412,63.674 60.74,76.639C60.732,76.645 59.254,76.636 59.25,76.634L50.305,55.565C46.76,62.518 42.832,69.746 39.473,76.624C39.453,76.659 37.848,76.64 37.846,76.618C32.711,64.632 27.387,52.725 22.225,40.748C21.03,37.82 16.838,33.111 13.969,33.138C13.969,32.798 13.953,32.039 13.949,31.58L31.631,31.578L31.617,33.109C29.541,33.205 25.953,34.53 26.883,36.822C29.375,42.203 38.199,63.049 40.584,68.341C42.248,65.084 46.895,56.402 48.809,52.732C47.309,49.654 42.352,38.162 40.866,35.268C39.745,33.381 36.932,33.15 34.766,33.117C34.766,32.634 34.791,32.262 34.782,31.599L50.325,31.647L50.325,33.059C48.221,33.117 46.229,33.9 47.132,35.912C49.223,40.252 50.444,43.342 52.363,47.356C52.976,46.18 56.118,39.734 57.616,36.332C58.521,34.07 57.169,33.223 53.384,33.121C53.434,32.749 53.401,32.002 53.434,31.646L66.858,31.659L66.864,33.06C64.397,33.156 61.843,34.47 60.51,36.51L54.046,49.916C54.755,51.689 60.97,65.496 61.624,67.027L74.988,36.18C74.037,33.683 71.004,33.125 69.818,33.098C69.826,32.7 69.828,32.093 69.83,31.586L83.781,31.626L83.801,31.696L83.778,33.09C80.717,33.183 78.824,34.82 77.691,37.503Z" style="fill:rgb(27,13,78);fill-rule:nonzero;"/>
</svg>
